<svg xmlns="http://www.w3.org/2000/svg" xmlns:xlink="http://www.w3.org/1999/xlink" version="1.1" width="1000" height="1000" viewBox="0 0 1000 1000" xml:space="preserve">
<desc>Created with Fabric.js 3.5.0</desc>
<defs>
</defs>
<rect x="0" y="0" width="100%" height="100%" fill="#ffffff"/>
<g transform="matrix(7.2635 0 0 7.2635 475.2414 495.0638)" id="765914">
<path style="stroke: rgb(77,5,255); stroke-width: 1; stroke-dasharray: none; stroke-linecap: butt; stroke-dashoffset: 0; stroke-linejoin: miter; stroke-miterlimit: 4; is-custom-font: none; font-file-url: none; fill: rgb(90,23,164); fill-opacity: 0.88; fill-rule: evenodd; opacity: 1;" vector-effect="non-scaling-stroke" transform=" translate(-16.5, -15.5)" d="M 23 2 L 25.0025781 2 C 26.1090746 2 27 2.89871223 27 4.00732994 L 27 26.9926701 C 27 28.1016617 26.1057238 29 25.0025781 29 L 9.99742191 29 C 8.89092539 29 8 28.1012878 8 26.9926701 L 8 4.00732994 C 8 2.89833832 8.89427625 2 9.99742191 2 L 17 2 L 17 15 L 20 12 L 23 15 L 23 2 L 23 2 L 23 2 Z M 6 9 L 6 10 L 8 10 L 8 9 L 6 9 L 6 9 Z M 6 13 L 6 14 L 8 14 L 8 13 L 6 13 L 6 13 Z M 6 5 L 6 6 L 8 6 L 8 5 L 6 5 L 6 5 Z M 6 21 L 6 22 L 8 22 L 8 21 L 6 21 L 6 21 Z M 6 25 L 6 26 L 8 26 L 8 25 L 6 25 L 6 25 Z M 6 17 L 6 18 L 8 18 L 8 17 L 6 17 L 6 17 Z M 8 9 L 8 10 L 10 10 L 10 9 L 8 9 L 8 9 Z M 8 13 L 8 14 L 10 14 L 10 13 L 8 13 L 8 13 Z M 8 5 L 8 6 L 10 6 L 10 5 L 8 5 L 8 5 Z M 8 21 L 8 22 L 10 22 L 10 21 L 8 21 L 8 21 Z M 8 25 L 8 26 L 10 26 L 10 25 L 8 25 L 8 25 Z M 8 17 L 8 18 L 10 18 L 10 17 L 8 17 L 8 17 Z M 18 2 L 18 12.5999756 L 20 10.5999756 L 22 12.5999756 L 22 2 L 18 2 L 18 2 Z" stroke-linecap="round"/>
</g>
<g transform="matrix(1 0 0 1 494.6472 678.4467)" style="filter: url(#SVGID_9);" id="996371">
<filter id="SVGID_9" y="-23.87%" height="147.74%" x="-20.93%" width="141.86%">
	<feGaussianBlur in="SourceAlpha" stdDeviation="0"/>
	<feOffset dx="7" dy="7" result="oBlur"/>
	<feFlood flood-color="rgb(84,19,198)" flood-opacity="1"/>
	<feComposite in2="oBlur" operator="in"/>
	<feMerge>
		<feMergeNode/>
		<feMergeNode in="SourceGraphic"/>
	</feMerge>
</filter>
		
<path xml:space="preserve" font-family="Poppins" font-size="160" font-style="italic" font-weight="bold" style="stroke: rgb(59,59,59); stroke-width: 5; stroke-dasharray: none; stroke-linecap: butt; stroke-dashoffset: 0; stroke-linejoin: miter; stroke-miterlimit: 4; is-custom-font: none; font-file-url: none; fill: rgb(59,180,119); fill-rule: nonzero; opacity: 1; white-space: pre;" d="M-321.52-62.06Q-303.76-62.06-290.48-55.02Q-277.20-47.98-269.92-35.26Q-262.64-22.54-262.64-5.90L-262.64-5.90Q-262.64 10.58-269.92 23.38Q-277.20 36.18-290.56 43.22Q-303.92 50.26-321.52 50.26L-321.52 50.26L-363.60 50.26L-363.60-62.06L-321.52-62.06ZM-323.28 26.58Q-307.76 26.58-299.12 18.10Q-290.48 9.62-290.48-5.90L-290.48-5.90Q-290.48-21.42-299.12-30.06Q-307.76-38.70-323.28-38.70L-323.28-38.70L-336.24-38.70L-336.24 26.58L-323.28 26.58ZM-247.28-62.06L-219.92-62.06L-219.92 50.26L-247.28 50.26L-247.28-62.06ZM-95.28-26.54L-125.52-26.54Q-128.56-32.14-134.24-35.10Q-139.92-38.06-147.60-38.06L-147.60-38.06Q-160.88-38.06-168.88-29.34Q-176.88-20.62-176.88-6.06L-176.88-6.06Q-176.88 9.46-168.48 18.18Q-160.08 26.90-145.36 26.90L-145.36 26.90Q-135.28 26.90-128.32 21.78Q-121.36 16.66-118.16 7.06L-118.16 7.06L-152.88 7.06L-152.88-13.10L-93.36-13.10L-93.36 12.34Q-96.40 22.58-103.68 31.38Q-110.96 40.18-122.16 45.62Q-133.36 51.06-147.44 51.06L-147.44 51.06Q-164.08 51.06-177.12 43.78Q-190.16 36.50-197.44 23.54Q-204.72 10.58-204.72-6.06L-204.72-6.06Q-204.72-22.70-197.44-35.74Q-190.16-48.78-177.20-56.06Q-164.24-63.34-147.60-63.34L-147.60-63.34Q-127.44-63.34-113.60-53.58Q-99.76-43.82-95.28-26.54L-95.28-26.54ZM-78.16-62.06L-50.80-62.06L-50.80 50.26L-78.16 50.26L-78.16-62.06ZM54.64-25.90Q54.64-16.14 50.16-8.06Q45.68 0.02 36.40 4.98Q27.12 9.94 13.36 9.94L13.36 9.94L-3.60 9.94L-3.60 50.26L-30.96 50.26L-30.96-62.06L13.36-62.06Q26.80-62.06 36.08-57.42Q45.36-52.78 50-44.62Q54.64-36.46 54.64-25.90L54.64-25.90ZM11.28-11.82Q19.12-11.82 22.96-15.50Q26.80-19.18 26.80-25.90L26.80-25.90Q26.80-32.62 22.96-36.30Q19.12-39.98 11.28-39.98L11.28-39.98L-3.60-39.98L-3.60-11.82L11.28-11.82ZM96.24-62.06L96.24 29.14L132.08 29.14L132.08 50.26L68.88 50.26L68.88-62.06L96.24-62.06ZM221.84 50.26L215.12 30.42L173.20 30.42L166.48 50.26L137.84 50.26L178.48-62.06L210.16-62.06L250.80 50.26L221.84 50.26ZM180.40 9.30L208.08 9.30L194.16-31.82L180.40 9.30ZM363.60-62.06L363.60 50.26L336.24 50.26L290.48-19.02L290.48 50.26L263.12 50.26L263.12-62.06L290.48-62.06L336.24 7.54L336.24-62.06L363.60-62.06Z"/></g>
</svg>